<svg id="Layer_1" data-name="Layer 1" xmlns="http://www.w3.org/2000/svg" viewBox="0 0 182.56 47"><defs><style>.cls-1{fill:#383232;}.cls-2{fill:#fe6604;}.cls-3{fill:#991e08;}</style></defs><path class="cls-1" d="M90.71,36.16V17.87h5.61a2.93,2.93,0,0,1,2.8,2.92V36.16h8.71V18.63s-.29-5.61-7.19-8H81.94V35.93Z"/><path class="cls-2" d="M79.06,20l0-1.05v-.25a14.32,14.32,0,0,0,4.27-2.72,5.91,5.91,0,0,0,1.79-5.7A8.73,8.73,0,0,1,84,11.7a8.46,8.46,0,0,1-1.44,1.08,32.93,32.93,0,0,1-4.48,2.35s-12.5,3.53-18.21,4.4c-5.53.83-8.27,5.47-8.52,6.88-.21,1.23-.68,8.62,6.33,10.38s13.14-2.89,14.11-3.9c0,0,2.65,5.07,5.77,4.29a3.79,3.79,0,0,0,3.07-3.59s-.89-3.08-1.32-4.17c-.34-.86-.34-6-.28-8.36C79,20.46,79,20.05,79.06,20ZM68.2,30.49a6.9,6.9,0,0,1-7.83.12,3.53,3.53,0,0,1-.76-5l.24-.32c2.37-1.53,5.3-1.81,8.05-2.44a34.8,34.8,0,0,0,3.58-1v.15c0,.52,0,1.15-.07,1.83C71.21,26.21,70.48,29.32,68.2,30.49Z"/><path class="cls-2" d="M79.06,20l0-1.05v-.25a14.32,14.32,0,0,0,4.27-2.72,5.91,5.91,0,0,0,1.79-5.7A8.73,8.73,0,0,1,84,11.7a8.46,8.46,0,0,1-1.44,1.08,32.93,32.93,0,0,1-4.48,2.35s-12.5,3.53-18.21,4.4c-5.53.83-8.4,5.34-8.51,6.76-.1,1.26-.69,8.74,6.32,10.5s13.14-2.89,14.11-3.9c0,0,2.65,5.07,5.77,4.29a3.79,3.79,0,0,0,3.07-3.59s-.89-3.08-1.32-4.17c-.34-.86-.34-6-.28-8.36C79,20.46,79,20.05,79.06,20ZM68.2,30.49a6.9,6.9,0,0,1-7.83.12,3.53,3.53,0,0,1-.76-5l.24-.32c2.37-1.53,5.3-1.81,8.05-2.44a34.8,34.8,0,0,0,3.58-1v.15c0,.52,0,1.15-.07,1.83C71.21,26.21,70.48,29.32,68.2,30.49Z"/><path class="cls-3" d="M79.08,18.9l0,1.05c0,.1,0,.51,0,1.11-1.77.64-5.9,2.12-7.6,2.7,0-.68.07-1.31.07-1.83Z"/><path class="cls-1" d="M71.41,15.24l7-2.05S77.84,6.47,68.2,6.12,54.7,9,53.47,11,51.84,18.22,57,17.17A4.61,4.61,0,0,0,58.46,16c.49-.68,1.68-6.09,10.27-4.19C68.73,11.82,71.57,13.16,71.41,15.24Z"/><path class="cls-1" d="M109.57,3h8.84v7.66H127v7.5h-8.71v8.42a2.51,2.51,0,0,0,2.08,2.1,35.9,35.9,0,0,0,6.63,0v7.52h-8.71s-7,.24-8.71-6.63Z"/><path class="cls-1" d="M54.88,40.51v.93h.41v1h-.41a.65.65,0,0,0,.09.4.42.42,0,0,0,.33.11v1h-.1a1.22,1.22,0,0,1-1-.53,1.46,1.46,0,0,1-.2-.83v-2Z"/><path class="cls-1" d="M57.54,40.51v1a.78.78,0,0,1,.46-.16.67.67,0,0,1,.55.25,1,1,0,0,1,.2.68v1.52h-.9V42.54a.51.51,0,0,0,0-.21.16.16,0,0,0-.13,0c-.1,0-.15.07-.15.22v1.31h-.9v-3.3Z"/><path class="cls-1" d="M62.55,42.75H61.18a.63.63,0,0,1,0-.19.59.59,0,0,1,.05-.23h.46a.3.3,0,0,0-.31-.27.33.33,0,0,0-.27.14.62.62,0,0,0-.11.37.71.71,0,0,0,.1.38.32.32,0,0,0,.27.15A.36.36,0,0,0,61.6,43l.52.62a1.26,1.26,0,0,1-.8.28,1.26,1.26,0,1,1,0-2.51,1.19,1.19,0,0,1,.88.36,1.17,1.17,0,0,1,.35.88A1.1,1.1,0,0,1,62.55,42.75Z"/><path class="cls-1" d="M66.88,41.4v2.41H66V41.4Zm-.45-1.07a.44.44,0,0,1,.32.13.39.39,0,0,1,.13.3.41.41,0,0,1-.12.31.48.48,0,0,1-.33.12.44.44,0,0,1-.32-.12.39.39,0,0,1-.13-.31.39.39,0,0,1,.13-.3A.44.44,0,0,1,66.43,40.33Z"/><path class="cls-1" d="M70.47,43.81h-.91V42.45c0-.14,0-.21-.17-.21s-.17.07-.17.21v1.36h-.9V42.47a1.08,1.08,0,0,1,.31-.79,1,1,0,0,1,.76-.33,1,1,0,0,1,.83.38,1.22,1.22,0,0,1,.25.81Z"/><path class="cls-1" d="M73.41,41.44v1c-.13,0-.22,0-.26.07a.44.44,0,0,0-.09.28,1.21,1.21,0,0,1-.55,1,1.38,1.38,0,0,1-.72.15h-.12v-1h0a.44.44,0,0,0,.31-.09.5.5,0,0,0,.11-.32A1.84,1.84,0,0,1,72.2,42a.66.66,0,0,1,.2-.29,1,1,0,0,1,.74-.26Z"/><path class="cls-1" d="M77,42.75H75.61a.63.63,0,0,1,0-.19.59.59,0,0,1,0-.23h.46a.29.29,0,0,0-.3-.27.34.34,0,0,0-.28.14.62.62,0,0,0-.11.37.63.63,0,0,0,.11.38.31.31,0,0,0,.27.15A.38.38,0,0,0,76,43l.51.62a1.26,1.26,0,0,1-.8.28,1.26,1.26,0,1,1,0-2.51,1.19,1.19,0,0,1,.88.36,1.18,1.18,0,0,1,.36.88S77,42.68,77,42.75Z"/><path class="cls-1" d="M79.74,42.7l.89,0a1.24,1.24,0,0,1-.39.86,1.19,1.19,0,0,1-.85.33,1.25,1.25,0,0,1-1.26-1.27,1.16,1.16,0,0,1,.37-.87,1.18,1.18,0,0,1,.88-.37,1.25,1.25,0,0,1,1.23,1l-.92,0a.35.35,0,0,0-.3-.16.34.34,0,0,0-.25.11.32.32,0,0,0-.1.25.37.37,0,0,0,.11.27.34.34,0,0,0,.26.1A.35.35,0,0,0,79.74,42.7Z"/><path class="cls-1" d="M82.74,40.51v.93h.4v1h-.4a.65.65,0,0,0,.09.4.42.42,0,0,0,.33.11v1h-.11a1.26,1.26,0,0,1-.57-.14,1.19,1.19,0,0,1-.44-.39,1.46,1.46,0,0,1-.21-.83v-2Z"/><path class="cls-1" d="M87.78,41.35A1.25,1.25,0,0,1,89,42.6a1.19,1.19,0,0,1-.37.89,1.27,1.27,0,0,1-1.79,0,1.19,1.19,0,0,1-.37-.89,1.2,1.2,0,0,1,.37-.89A1.27,1.27,0,0,1,87.78,41.35Zm0,.89a.32.32,0,0,0-.24.11.35.35,0,0,0-.1.26.33.33,0,0,0,.1.25.34.34,0,0,0,.24.11.34.34,0,0,0,.25-.11.33.33,0,0,0,.1-.25.35.35,0,0,0-.1-.26A.34.34,0,0,0,87.75,42.24Z"/><path class="cls-1" d="M91.61,41.94v1h-.4v.92H90.3v-2a1.32,1.32,0,0,1,.12-.59,1.19,1.19,0,0,1,.46-.51,1.14,1.14,0,0,1,.63-.2h.1v1h0a.34.34,0,0,0-.27.11.54.54,0,0,0-.09.33v.08Z"/><path class="cls-1" d="M95.86,40.51v.93h.41v1h-.41a.65.65,0,0,0,.09.4.42.42,0,0,0,.33.11v1h-.1a1.22,1.22,0,0,1-1-.53,1.54,1.54,0,0,1-.2-.83v-2Z"/><path class="cls-1" d="M100,42.75H98.61a.63.63,0,0,1,0-.19.59.59,0,0,1,0-.23h.46a.3.3,0,0,0-.31-.27.33.33,0,0,0-.27.14.62.62,0,0,0-.11.37.71.71,0,0,0,.1.38.32.32,0,0,0,.27.15A.36.36,0,0,0,99,43l.52.62a1.26,1.26,0,0,1-.8.28,1.22,1.22,0,0,1-.9-.36,1.19,1.19,0,0,1-.37-.89,1.26,1.26,0,0,1,1.28-1.26,1.19,1.19,0,0,1,.88.36,1.21,1.21,0,0,1,.35.88A1.1,1.1,0,0,1,100,42.75Z"/><path class="cls-1" d="M102.74,42.7l.9,0a1.33,1.33,0,0,1-.39.86,1.27,1.27,0,0,1-1.75,0,1.23,1.23,0,0,1-.37-.9,1.19,1.19,0,0,1,.37-.87,1.22,1.22,0,0,1,.89-.37,1.25,1.25,0,0,1,1.23,1l-.92,0a.38.38,0,0,0-.3-.16.33.33,0,0,0-.25.11.32.32,0,0,0-.1.25.34.34,0,0,0,.37.37A.33.33,0,0,0,102.74,42.7Z"/><path class="cls-1" d="M105.84,40.51v1a.8.8,0,0,1,.46-.16.66.66,0,0,1,.55.25,1,1,0,0,1,.21.68v1.52h-.91V42.54a.51.51,0,0,0,0-.21.14.14,0,0,0-.13,0c-.1,0-.15.07-.15.22v1.31h-.9v-3.3Z"/><path class="cls-1" d="M110.64,43.81h-.91V42.45c0-.14,0-.21-.17-.21s-.17.07-.17.21v1.36h-.9V42.47a1.08,1.08,0,0,1,.31-.79,1.07,1.07,0,0,1,1.59,0,1.17,1.17,0,0,1,.25.81Z"/><path class="cls-1" d="M113.21,41.35a1.22,1.22,0,0,1,.88.37,1.19,1.19,0,0,1,.37.88,1.27,1.27,0,0,1-2.54,0,1.24,1.24,0,0,1,.37-.89A1.28,1.28,0,0,1,113.21,41.35Zm0,.89a.34.34,0,0,0-.25.11.35.35,0,0,0-.1.26.37.37,0,0,0,.1.25.34.34,0,0,0,.5,0,.37.37,0,0,0,.1-.25.35.35,0,0,0-.1-.26A.34.34,0,0,0,113.19,42.24Z"/><path class="cls-1" d="M116.64,40.51v3.3h-.9v-3.3Z"/><path class="cls-1" d="M119.22,41.35a1.22,1.22,0,0,1,.88.37,1.23,1.23,0,0,1,.37.88,1.28,1.28,0,0,1-1.27,1.26,1.22,1.22,0,0,1-.9-.37,1.19,1.19,0,0,1-.37-.89,1.2,1.2,0,0,1,.37-.89A1.28,1.28,0,0,1,119.22,41.35Zm0,.89a.34.34,0,0,0-.25.11.35.35,0,0,0-.1.26.33.33,0,0,0,.1.25.34.34,0,0,0,.25.11.32.32,0,0,0,.24-.11.34.34,0,0,0,.11-.25.4.4,0,0,0-.1-.26A.34.34,0,0,0,119.2,42.24Z"/><path class="cls-1" d="M123,42.82v.83a1,1,0,0,1-.37.07,1,1,0,0,1-.74-.33,1.17,1.17,0,0,1-.31-.81,1.19,1.19,0,0,1,.37-.87,1.22,1.22,0,0,1,.9-.36,1.32,1.32,0,0,1,.54.12.94.94,0,0,1,.4.3,1.44,1.44,0,0,1,.25.92v.79a1.48,1.48,0,0,1-.37,1.05,1.21,1.21,0,0,1-1,.4,1.48,1.48,0,0,1-.45-.09V44a.7.7,0,0,0,.36.1A.47.47,0,0,0,123,44a.7.7,0,0,0,.14-.46v-.91c0-.25-.11-.38-.31-.38a.3.3,0,0,0-.23.1.37.37,0,0,0-.1.23.29.29,0,0,0,.1.23.3.3,0,0,0,.23.09A.33.33,0,0,0,123,42.82Z"/><path class="cls-1" d="M125.82,44.87v-.79a.71.71,0,0,0,.32.08.56.56,0,0,0,.57-.49.94.94,0,0,1-.46.14.73.73,0,0,1-.56-.25,1,1,0,0,1-.21-.64V41.4h.9v1.3q0,.21.18.21c.11,0,.17-.07.17-.23V41.4h.9v2.15a1.38,1.38,0,0,1-.34,1,1.26,1.26,0,0,1-1,.44A1.44,1.44,0,0,1,125.82,44.87Z"/></svg>