<svg id="Layer_1" data-name="Layer 1" xmlns="http://www.w3.org/2000/svg" viewBox="0 0 182.56 47"><defs><style>.cls-1{fill:#a7a7a7;}.cls-2{fill:#fe6604;}.cls-3{fill:#991e08;}</style></defs><path class="cls-1" d="M93.22,36.53V18.17h5.63a2.94,2.94,0,0,1,2.81,2.93V36.53h8.74V18.93s-.29-5.63-7.21-8H84.42v25.4Z"/><path class="cls-2" d="M81.52,20.26l0-1.06V19a14.6,14.6,0,0,0,4.28-2.73,5.93,5.93,0,0,0,1.8-5.72A9.23,9.23,0,0,1,86.47,12,9,9,0,0,1,85,13.06a32.52,32.52,0,0,1-4.49,2.35S68,19,62.25,19.83c-5.55.84-8.3,5.5-8.55,6.91C53.49,28,53,35.39,60.05,37.15s13.18-2.89,14.16-3.91c0,0,2.66,5.09,5.79,4.31a3.82,3.82,0,0,0,3.09-3.61s-.9-3.09-1.33-4.18c-.34-.87-.34-6.06-.28-8.39C81.49,20.77,81.51,20.35,81.52,20.26ZM70.63,30.84a6.94,6.94,0,0,1-7.86.11,3.53,3.53,0,0,1-.76-5l.24-.33c2.38-1.53,5.32-1.81,8.08-2.45a32.63,32.63,0,0,0,3.59-1v.15c0,.52,0,1.16-.07,1.84C73.64,26.53,72.92,29.66,70.63,30.84Z"/><path class="cls-2" d="M81.52,20.26l0-1.06V19a14.6,14.6,0,0,0,4.28-2.73,5.93,5.93,0,0,0,1.8-5.72A9.23,9.23,0,0,1,86.47,12,9,9,0,0,1,85,13.06a32.52,32.52,0,0,1-4.49,2.35S68,19,62.25,19.83c-5.55.84-8.43,5.36-8.54,6.79-.1,1.26-.69,8.77,6.34,10.53s13.18-2.89,14.16-3.91c0,0,2.66,5.09,5.79,4.31a3.82,3.82,0,0,0,3.09-3.61s-.9-3.09-1.33-4.18c-.34-.87-.34-6.06-.28-8.39C81.49,20.77,81.51,20.35,81.52,20.26ZM70.63,30.84a6.94,6.94,0,0,1-7.86.11,3.53,3.53,0,0,1-.76-5l.24-.33c2.38-1.53,5.32-1.81,8.08-2.45a32.63,32.63,0,0,0,3.59-1v.15c0,.52,0,1.16-.07,1.84C73.64,26.53,72.92,29.66,70.63,30.84Z"/><path class="cls-3" d="M81.55,19.2l0,1.06c0,.09,0,.51,0,1.11-1.78.64-5.92,2.12-7.63,2.71.05-.68.07-1.32.07-1.84Z"/><path class="cls-1" d="M73.85,15.53l7.05-2.06s-.6-6.74-10.27-7.1S57.08,9.25,55.85,11.3s-1.64,7.22,3.58,6.16a4.61,4.61,0,0,0,1.42-1.16c.5-.69,1.69-6.11,10.31-4.21C71.16,12.09,74,13.44,73.85,15.53Z"/><path class="cls-1" d="M112.14,3.21H121v7.68h8.6v7.53h-8.74v8.45A2.54,2.54,0,0,0,123,29a36,36,0,0,0,6.64,0v7.55h-8.74s-7,.23-8.74-6.66Z"/><path class="cls-1" d="M57,40.89v.93h.4v1H57a.62.62,0,0,0,.09.39.39.39,0,0,0,.33.11v1h-.1a1.17,1.17,0,0,1-.58-.15,1.09,1.09,0,0,1-.44-.38,1.48,1.48,0,0,1-.21-.83v-2Z"/><path class="cls-1" d="M59.66,40.89v1a.76.76,0,0,1,.46-.16.67.67,0,0,1,.55.25,1,1,0,0,1,.2.68V44.2H60V42.92a.43.43,0,0,0,0-.2.15.15,0,0,0-.13-.06c-.1,0-.15.08-.15.23V44.2h-.91V40.89Z"/><path class="cls-1" d="M64.69,43.14H63.31a.68.68,0,0,1,0-.19.69.69,0,0,1,0-.24h.46a.3.3,0,0,0-.31-.27.32.32,0,0,0-.27.15.58.58,0,0,0-.11.37.65.65,0,0,0,.1.38.33.33,0,0,0,.27.14.38.38,0,0,0,.27-.13l.51.62a1.26,1.26,0,0,1-.8.28,1.22,1.22,0,0,1-.9-.36,1.27,1.27,0,0,1,0-1.79,1.23,1.23,0,0,1,.91-.37A1.23,1.23,0,0,1,64.7,43,1.23,1.23,0,0,1,64.69,43.14Z"/><path class="cls-1" d="M69,41.78V44.2h-.91V41.78Zm-.45-1.07a.47.47,0,0,1,.32.12.45.45,0,0,1,0,.62.51.51,0,0,1-.66,0,.45.45,0,0,1,0-.62A.47.47,0,0,1,68.58,40.71Z"/><path class="cls-1" d="M72.63,44.2h-.91V42.84c0-.14-.06-.21-.17-.21s-.17.07-.17.21V44.2h-.91V42.85a1.09,1.09,0,0,1,.32-.79,1,1,0,0,1,.76-.33,1,1,0,0,1,.83.38,1.2,1.2,0,0,1,.25.82Z"/><path class="cls-1" d="M75.58,41.82v1a.4.4,0,0,0-.26.07.47.47,0,0,0-.09.29,1.22,1.22,0,0,1-.55,1,1.43,1.43,0,0,1-.72.15h-.12v-1h0a.44.44,0,0,0,.31-.09.5.5,0,0,0,.11-.32,1.78,1.78,0,0,1,.07-.52.75.75,0,0,1,.2-.3,1,1,0,0,1,.74-.26Z"/><path class="cls-1" d="M79.16,43.14H77.79a.68.68,0,0,1,0-.19.67.67,0,0,1,0-.24h.46a.28.28,0,0,0-.3-.27.32.32,0,0,0-.28.15.58.58,0,0,0-.11.37.66.66,0,0,0,.11.38.33.33,0,0,0,.27.14.35.35,0,0,0,.26-.13l.52.62a1.27,1.27,0,0,1-.81.28,1.22,1.22,0,0,1-.9-.36,1.19,1.19,0,0,1-.37-.9,1.26,1.26,0,0,1,1.28-1.26,1.18,1.18,0,0,1,.88.36,1.19,1.19,0,0,1,.36.88A1.23,1.23,0,0,1,79.16,43.14Z"/><path class="cls-1" d="M81.93,43.09l.9,0a1.35,1.35,0,0,1-.39.87,1.2,1.2,0,0,1-.86.33,1.22,1.22,0,0,1-.9-.37,1.26,1.26,0,0,1-.36-.91,1.16,1.16,0,0,1,.37-.87,1.19,1.19,0,0,1,.89-.37,1.25,1.25,0,0,1,1.23,1l-.92,0a.37.37,0,0,0-.3-.15.35.35,0,0,0-.26.1.37.37,0,0,0-.09.26.35.35,0,0,0,.1.26.36.36,0,0,0,.26.11A.34.34,0,0,0,81.93,43.09Z"/><path class="cls-1" d="M84.94,40.89v.93h.41v1h-.41a.62.62,0,0,0,.09.39c.06.08.17.11.34.11v1h-.11a1.19,1.19,0,0,1-.58-.15,1.16,1.16,0,0,1-.44-.38,1.48,1.48,0,0,1-.2-.83v-2Z"/><path class="cls-1" d="M90,41.73a1.22,1.22,0,0,1,.88.37,1.2,1.2,0,0,1,.37.89,1.19,1.19,0,0,1-.37.89,1.28,1.28,0,0,1-1.8,0,1.2,1.2,0,0,1-.37-.89,1.19,1.19,0,0,1,.37-.89A1.25,1.25,0,0,1,90,41.73Zm0,.9a.33.33,0,0,0-.25.1.39.39,0,0,0,0,.52.34.34,0,0,0,.25.11.36.36,0,0,0,.25-.11.4.4,0,0,0,.1-.26.35.35,0,0,0-.1-.26A.33.33,0,0,0,90,42.63Z"/><path class="cls-1" d="M93.85,42.32v1h-.41v.93h-.9V42.15a1.32,1.32,0,0,1,.12-.59,1.23,1.23,0,0,1,.45-.51,1.12,1.12,0,0,1,.64-.2h.1v.95h0a.33.33,0,0,0-.26.11.54.54,0,0,0-.1.33v.08Z"/><path class="cls-1" d="M98.11,40.89v.93h.41v1h-.41a.62.62,0,0,0,.09.39.42.42,0,0,0,.34.11v1h-.11a1.19,1.19,0,0,1-.58-.15,1.13,1.13,0,0,1-.43-.38,1.48,1.48,0,0,1-.21-.83v-2Z"/><path class="cls-1" d="M102.25,43.14h-1.37a.68.68,0,0,1,0-.19.67.67,0,0,1,0-.24h.46a.28.28,0,0,0-.3-.27.32.32,0,0,0-.28.15.58.58,0,0,0-.11.37.66.66,0,0,0,.11.38.33.33,0,0,0,.27.14.35.35,0,0,0,.26-.13l.52.62a1.27,1.27,0,0,1-.81.28,1.22,1.22,0,0,1-.9-.36,1.19,1.19,0,0,1-.37-.9A1.26,1.26,0,0,1,101,41.73a1.18,1.18,0,0,1,.88.36,1.19,1.19,0,0,1,.36.88A1.23,1.23,0,0,1,102.25,43.14Z"/><path class="cls-1" d="M105,43.09l.9,0a1.35,1.35,0,0,1-.39.87,1.2,1.2,0,0,1-.86.33,1.22,1.22,0,0,1-.9-.37,1.26,1.26,0,0,1-.36-.91,1.16,1.16,0,0,1,.37-.87,1.19,1.19,0,0,1,.89-.37,1.25,1.25,0,0,1,1.23,1l-.92,0a.37.37,0,0,0-.3-.15.35.35,0,0,0-.26.1.37.37,0,0,0-.09.26.35.35,0,0,0,.1.26.36.36,0,0,0,.26.11A.34.34,0,0,0,105,43.09Z"/><path class="cls-1" d="M108.13,40.89v1a.8.8,0,0,1,.46-.16.68.68,0,0,1,.56.25,1.08,1.08,0,0,1,.2.68V44.2h-.91V42.92a.43.43,0,0,0,0-.2s-.06-.06-.13-.06-.15.08-.15.23V44.2h-.91V40.89Z"/><path class="cls-1" d="M112.94,44.2H112V42.84c0-.14-.06-.21-.17-.21s-.17.07-.17.21V44.2h-.91V42.85a1.08,1.08,0,0,1,.31-.79,1,1,0,0,1,.77-.33,1,1,0,0,1,.83.38,1.25,1.25,0,0,1,.24.82Z"/><path class="cls-1" d="M115.53,41.73a1.22,1.22,0,0,1,.88.37,1.24,1.24,0,0,1,.37.89,1.27,1.27,0,0,1-2.17.89,1.21,1.21,0,0,1-.38-.89,1.19,1.19,0,0,1,.38-.89A1.24,1.24,0,0,1,115.53,41.73Zm0,.9a.31.31,0,0,0-.24.1.39.39,0,0,0,0,.52.34.34,0,0,0,.24.11.34.34,0,0,0,.25-.11.36.36,0,0,0,0-.52A.32.32,0,0,0,115.5,42.63Z"/><path class="cls-1" d="M119,40.89V44.2h-.91V40.89Z"/><path class="cls-1" d="M121.56,41.73A1.26,1.26,0,0,1,122.81,43a1.28,1.28,0,0,1-1.27,1.26,1.22,1.22,0,0,1-.9-.37,1.21,1.21,0,0,1-.38-.89,1.19,1.19,0,0,1,.38-.89A1.24,1.24,0,0,1,121.56,41.73Zm0,.9a.31.31,0,0,0-.24.1.36.36,0,0,0,0,.52.34.34,0,0,0,.24.11.34.34,0,0,0,.25-.11.36.36,0,0,0,0-.52A.32.32,0,0,0,121.53,42.63Z"/><path class="cls-1" d="M125.38,43.21V44a1,1,0,0,1-.37.07,1,1,0,0,1-.74-.33A1.12,1.12,0,0,1,124,43a1.16,1.16,0,0,1,.37-.88,1.22,1.22,0,0,1,.9-.36,1.25,1.25,0,0,1,.54.12,1,1,0,0,1,.41.3,1.51,1.51,0,0,1,.24.92v.8a1.52,1.52,0,0,1-.36,1.05,1.25,1.25,0,0,1-1,.4,1.48,1.48,0,0,1-.45-.09v-.82a.75.75,0,0,0,.36.1.46.46,0,0,0,.37-.16.73.73,0,0,0,.14-.47V43c0-.25-.11-.38-.31-.38a.34.34,0,0,0-.23.1.33.33,0,0,0-.1.24.29.29,0,0,0,.1.23.3.3,0,0,0,.23.09A.47.47,0,0,0,125.38,43.21Z"/><path class="cls-1" d="M128.18,45.26v-.79a.88.88,0,0,0,.32.08.55.55,0,0,0,.57-.5.82.82,0,0,1-.46.14.7.7,0,0,1-.56-.25,1,1,0,0,1-.21-.64V41.78h.9v1.3c0,.15.06.22.18.22s.17-.08.17-.24V41.78H130v2.16a1.39,1.39,0,0,1-.34,1,1.3,1.3,0,0,1-1,.44A1.27,1.27,0,0,1,128.18,45.26Z"/></svg>